<svg xmlns="http://www.w3.org/2000/svg" viewBox="0 0 182 68">
    <g fill="none" fill-rule="evenodd">
        <path d="M1 0h205.172v68H1z"/>
        <path stroke="#E10786" stroke-width="1.5" d="M16.718 6.375a32.371 32.371 0 0 0-3.545 2.617C5.36 15.625.853 25.794 1.54 36.218 2.338 48.3 9.927 59.167 20.996 64.082c23.508 10.44 50.018-10.305 45.594-35.63C64.173 14.616 52.226 3.05 38.013 1.75c-7.356-.768-15.634 2.6-16.845 10.547-1.15 7.545 5.089 11.663 8.917 17.126 3.226 4.603 3.489 12.133-1.4 15.38m17.697-6.345a5.02 5.02 0 0 1-6.97-1.04c-.436-.622-1.138-2.093-1.791-4.095-.123-.375-.273-.775-.256-1.175.01-.238.101-.465.162-.696.54-2.064-.326-4.566.07-6.678 1.09-5.811 6.897-8.83 12.64-7.421 5.741 1.409 9.253 7.206 7.844 12.948-.65 2.648-2.077 4.873-4.812 6.428-.099.845-.11 1.756-.287 2.611-.539 2.602-1.491 5.126-2.919 7.373-3.4 5.353-9.248 9.305-15.49 9.933-6.123.616-14.719-1.677-17.069-8.304-.796-2.244-.265-5.798.282-8.056.17-.704.35-1.55-.158-2.065-.172-.174-.4-.28-.625-.376-1.94-.83-4.704-.712-6.44-1.814-1.856-1.178-2.001-4.575-1.667-6.477.161-.914.515-2.393 1.439-2.87 1.688-.874 1.626 1.598 1.975 2.84.88 3.143 6.305 1.57 8.518 1.563 2.858-.01 4.983.61 5.374 3.79"/>
        <path fill="#4A4A4A" d="M89.763 18.172h1.812l-5.487 5.786 5.768 6.525H89.94l-5.575-6.42 5.4-5.89zm-5.697 12.31H82.57v-12.31h1.495v12.31zm20.898 0h-1.495V19.58h-4.467l-.211 2.322c-.721 7.808-2.374 8.846-4.309 8.582l.018-1.495c.44.053.739.018 1.231-.598.264-.317.475-.756.668-1.319.405-1.125.81-3.394 1.02-6.437l.176-2.462h7.369v12.31zm14.48-9.848l-7.475 9.849h-1.319v-12.31h1.495v9.848l7.474-9.849h1.319v12.31h-1.495v-9.848zm16.94 9.849h-1.494v-5.575h-6.771v5.575h-1.495v-12.31h1.495V23.5h6.77v-5.329h1.495v12.31zm14.48-9.849l-7.474 9.849h-1.32v-12.31h1.496v9.848l7.474-9.849h1.319v12.31h-1.495v-9.848zm14.374-2.462h1.811l-5.487 5.786 5.768 6.525h-1.917l-5.574-6.42 5.399-5.89zm-5.698 12.31h-1.495v-12.31h1.495v12.31zm11.7 0h-1.512l5.293-12.38h1.284l5.294 12.38h-1.6l-1.583-3.728h-5.61l-1.566 3.729zm6.595-5.134l-2.216-5.259-2.216 5.259h4.432zM88.78 52.899h-1.495v-1.618h-.018c-1.776 0-3.183-.422-4.256-1.283-1.055-.862-1.582-2.04-1.582-3.57 0-1.53.527-2.709 1.582-3.553 1.056-.862 2.48-1.284 4.274-1.301v-1.266h1.495v1.266c1.811.017 3.235.44 4.308 1.301 1.073.862 1.6 2.04 1.6 3.553 0 1.53-.545 2.708-1.617 3.57-1.073.861-2.48 1.283-4.239 1.283h-.052V52.9zm.017-9.936h-.017v6.947h.035c2.69 0 4.29-1.214 4.29-3.482 0-2.181-1.582-3.465-4.308-3.465zm-5.786 3.465c0 2.25 1.636 3.482 4.256 3.482h.018v-6.947c-2.673 0-4.274 1.301-4.274 3.465zm15.253.175c0-1.793.598-3.288 1.777-4.502 1.178-1.213 2.69-1.829 4.502-1.829 1.811 0 3.306.598 4.484 1.777 1.196 1.178 1.794 2.708 1.794 4.554 0 1.812-.598 3.324-1.794 4.538-1.196 1.196-2.69 1.793-4.484 1.793-1.812 0-3.306-.597-4.502-1.776-1.179-1.178-1.777-2.708-1.777-4.555zm1.583 0c0 1.39.457 2.568 1.354 3.518.897.932 2.023 1.407 3.342 1.407 1.389 0 2.515-.475 3.376-1.407.88-.932 1.32-2.11 1.32-3.518 0-1.424-.458-2.585-1.355-3.517-.897-.932-2.022-1.407-3.341-1.407-1.354 0-2.462.458-3.36 1.39-.896.932-1.336 2.11-1.336 3.534zm17.188 6.156h-1.495v-12.31h1.512l4.626 6.313 4.431-6.314h1.425v12.31h-1.495v-9.953l-4.361 6.12h-.23l-4.413-6.067v9.9zm24.978-9.849l-7.474 9.849h-1.319v-12.31h1.495v9.848l7.474-9.849h1.319v12.31h-1.495V42.91zm16.941 9.849h-1.494v-5.575h-6.771v5.575h-1.495v-12.31h1.495v5.328h6.77v-5.329h1.495v12.31zm5.616 0h-1.512l5.293-12.381h1.284l5.294 12.38h-1.6l-1.584-3.728h-5.61l-1.565 3.729zm6.595-5.136l-2.216-5.258-2.216 5.258h4.432z"/>
    </g>
</svg>
